<svg width="162" height="34" viewBox="0 0 162 34" fill="none" xmlns="http://www.w3.org/2000/svg">
<path d="M0 8.19277C0 3.66803 3.67598 0 8.21053 0H156V34H0V8.19277Z" fill="#17F8AD"/>
<path d="M100 4.91566C100 2.20082 102.221 0 104.96 0H162V25.8072C162 30.332 158.299 34 153.733 34H104.96C102.221 34 100 31.7992 100 29.0843V4.91566Z" fill="#001A6E"/>
<path d="M146 28V8H149.963V24.5137H158V28H146Z" fill="#17F8AD"/>
<path d="M130 28V8H133.963V24.5137H142V28H130Z" fill="#17F8AD"/>
<path d="M128 8V28H124V8H128Z" fill="#17F8AD"/>
<path d="M106 28V8H113.266C114.601 8 115.714 8.2181 116.606 8.6543C117.498 9.0905 118.169 9.69596 118.618 10.4707C119.067 11.2389 119.291 12.1243 119.291 13.127C119.291 13.9082 119.149 14.5951 118.866 15.1875C118.582 15.7734 118.192 16.2552 117.696 16.6328C117.206 17.0039 116.645 17.2676 116.013 17.4238V17.6191C116.704 17.6517 117.351 17.8665 117.953 18.2637C118.562 18.6608 119.055 19.2174 119.433 19.9336C119.811 20.6432 120 21.4896 120 22.4727C120 23.5339 119.761 24.4811 119.282 25.3145C118.81 26.1413 118.11 26.7956 117.182 27.2773C116.255 27.7591 115.112 28 113.753 28H106ZM109.837 24.543H112.965C114.034 24.543 114.814 24.3184 115.304 23.8691C115.794 23.4134 116.039 22.8079 116.039 22.0527C116.039 21.4993 115.918 21.0111 115.676 20.5879C115.434 20.1647 115.088 19.8327 114.639 19.5918C114.196 19.3509 113.668 19.2305 113.053 19.2305H109.837V24.543ZM109.837 16.3691H112.681C113.207 16.3691 113.673 16.2682 114.081 16.0664C114.495 15.8581 114.819 15.5651 115.056 15.1875C115.298 14.8099 115.419 14.3574 115.419 13.8301C115.419 13.1074 115.186 12.5247 114.719 12.082C114.258 11.6393 113.603 11.418 112.752 11.418H109.837V16.3691Z" fill="#17F8AD"/>
<path d="M93.6247 13.8622C93.5457 13.0958 93.2066 12.5004 92.6074 12.076C92.0082 11.6516 91.1951 11.4394 90.1679 11.4394C89.47 11.4394 88.8807 11.5344 88.4 11.7245C87.9193 11.9082 87.5506 12.1647 87.2938 12.4941C87.0436 12.8234 86.9185 13.1971 86.9185 13.6152C86.9053 13.9636 86.9811 14.2676 87.1457 14.5273C87.3169 14.787 87.5506 15.0119 87.8469 15.2019C88.1432 15.3856 88.4856 15.5471 88.8741 15.6865C89.2626 15.8195 89.6774 15.9335 90.1185 16.0285L91.9358 16.4466C92.8181 16.6366 93.628 16.8899 94.3654 17.2067C95.1029 17.5234 95.7416 17.9129 96.2815 18.3753C96.8214 18.8377 97.2395 19.3824 97.5358 20.0095C97.8387 20.6366 97.9934 21.3555 98 22.1663C97.9934 23.3571 97.6774 24.3895 97.0519 25.2637C96.4329 26.1314 95.5375 26.806 94.3654 27.2874C93.2 27.7625 91.7942 28 90.1481 28C88.5152 28 87.093 27.7593 85.8815 27.2779C84.6765 26.7965 83.735 26.0839 83.0568 25.1401C82.3852 24.19 82.0329 23.015 82 21.6152H86.1383C86.1844 22.2676 86.3786 22.8124 86.721 23.2494C87.07 23.6801 87.5342 24.0063 88.1136 24.228C88.6996 24.4434 89.3613 24.5511 90.0988 24.5511C90.823 24.5511 91.4518 24.4497 91.9852 24.247C92.5251 24.0443 92.9432 23.7625 93.2395 23.4014C93.5358 23.0404 93.684 22.6255 93.684 22.1568C93.684 21.7197 93.549 21.3523 93.279 21.0546C93.0156 20.7569 92.6272 20.5036 92.1136 20.2945C91.6066 20.0855 90.9844 19.8955 90.2469 19.7245L88.0444 19.1924C86.3391 18.7933 84.9926 18.1694 84.0049 17.3207C83.0173 16.4719 82.5267 15.3286 82.5333 13.8907C82.5267 12.7126 82.8527 11.6833 83.5111 10.8029C84.1761 9.92241 85.0881 9.23515 86.2469 8.74109C87.4058 8.24703 88.7226 8 90.1975 8C91.6988 8 93.0091 8.24703 94.1284 8.74109C95.2543 9.23515 96.13 9.92241 96.7556 10.8029C97.3811 11.6833 97.7037 12.7031 97.7235 13.8622H93.6247Z" fill="#001A6E"/>
<path d="M75.9199 8H80V20.8069C80 22.2449 79.6639 23.5031 78.9918 24.5816C78.3259 25.6601 77.393 26.501 76.1932 27.1045C74.9933 27.7015 73.5956 28 72 28C70.3981 28 68.9973 27.7015 67.7974 27.1045C66.5976 26.501 65.6647 25.6601 64.9988 24.5816C64.3329 23.5031 64 22.2449 64 20.8069V8H68.0801V20.4506C68.0801 21.2017 68.2403 21.8694 68.5607 22.4535C68.8873 23.0377 69.3459 23.4967 69.9364 23.8305C70.5269 24.1643 71.2148 24.3312 72 24.3312C72.7915 24.3312 73.4794 24.1643 74.0636 23.8305C74.6541 23.4967 75.1095 23.0377 75.4299 22.4535C75.7566 21.8694 75.9199 21.2017 75.9199 20.4506V8Z" fill="#001A6E"/>
<path d="M62 15.0817H57.7222C57.6441 14.5431 57.4845 14.0646 57.2436 13.6464C57.0027 13.2218 56.6934 12.8606 56.3158 12.5627C55.9381 12.2649 55.5019 12.0368 55.0071 11.8783C54.5187 11.7199 53.9881 11.6407 53.4151 11.6407C52.3798 11.6407 51.478 11.891 50.7097 12.3916C49.9414 12.8859 49.3456 13.6084 48.9224 14.5589C48.4992 15.5032 48.2876 16.6502 48.2876 18C48.2876 19.3878 48.4992 20.5539 48.9224 21.4981C49.3521 22.4423 49.9512 23.1553 50.7195 23.6369C51.4878 24.1185 52.3766 24.3593 53.3858 24.3593C53.9523 24.3593 54.4764 24.2864 54.9582 24.1407C55.4466 23.9949 55.8795 23.7826 56.2572 23.5038C56.6348 23.2186 56.9474 22.8733 57.1948 22.4677C57.4487 22.0621 57.6245 21.5995 57.7222 21.0798L62 21.0989C61.8893 21.9924 61.6126 22.8542 61.1698 23.6844C60.7336 24.5082 60.1443 25.2465 59.4021 25.8992C58.6663 26.5456 57.7873 27.0589 56.7651 27.4392C55.7493 27.8131 54.6001 28 53.3174 28C51.5334 28 49.9381 27.6071 48.5317 26.8213C47.1319 26.0355 46.025 24.898 45.2111 23.4087C44.4037 21.9195 44 20.1166 44 18C44 15.8771 44.4102 14.071 45.2306 12.5817C46.051 11.0925 47.1644 9.95817 48.5708 9.17871C49.9772 8.3929 51.5594 8 53.3174 8C54.4764 8 55.5507 8.15843 56.5404 8.47529C57.5366 8.79214 58.4189 9.25475 59.1872 9.86312C59.9555 10.4651 60.5806 11.2034 61.0624 12.0779C61.5507 12.9525 61.8633 13.9537 62 15.0817Z" fill="#001A6E"/>
<path d="M6 28V8H20V11.4863H10.4705V16.252H19.0708V19.7383H10.4705V28H6Z" fill="#001A6E"/>
<path d="M110 6H114V10H110V6Z" fill="#17F8AD"/>
<path d="M110 24H114V30H110V24Z" fill="#17F8AD"/>
<path d="M40 16L40 20L34 18.6667L34 17.3333L40 16Z" fill="#001A6E"/>
<path d="M40 16L40 20L34 18.6667L34 17.3333L40 16Z" fill="#001A6E"/>
<path d="M34 18.6667L34 17.3333L40 16L40 20L34 18.6667ZM34.2727 17.612L34.2727 18.388L39.7273 19.6003L39.7273 16.3997L34.2727 17.612Z" fill="#001A6E"/>
<path d="M24 20V16L28 17.3333V18.6667L24 20Z" fill="#001A6E"/>
<path d="M24 20V16L28 17.3333V18.6667L24 20Z" fill="#001A6E"/>
<path d="M28 17.3333V18.6667L24 20V16L28 17.3333ZM27.8 18.3932V17.6068L24.2 16.4062V19.5937L27.8 18.3932Z" fill="#001A6E"/>
<path d="M32 26H30L30.6667 22H31.3333L32 26Z" fill="#001A6E"/>
<path d="M32 26H30L30.6667 22H31.3333L32 26Z" fill="#001A6E"/>
<path d="M30.6667 22H31.3333L32 26H30L30.6667 22ZM31.1966 22.2H30.8034L30.2031 25.8H31.7969L31.1966 22.2Z" fill="#001A6E"/>
<path d="M30 10H32L31.3333 16H30.6667L30 10Z" fill="#001A6E"/>
<path d="M30 10H32L31.3333 16H30.6667L30 10Z" fill="#001A6E"/>
<path d="M31.3333 16H30.6667L30 10H32L31.3333 16ZM30.806 15.7273H31.194L31.8001 10.2727H30.1999L30.806 15.7273Z" fill="#001A6E"/>
<path d="M38.7347 18C38.7347 14.2805 35.7195 11.2653 32 11.2653C28.2805 11.2653 25.2653 14.2805 25.2653 18C25.2653 21.7195 28.2805 24.7347 32 24.7347V28C26.4772 28 22 23.5228 22 18C22 12.4772 26.4772 8 32 8C37.5228 8 42 12.4772 42 18C42 23.5228 37.5228 28 32 28V24.7347C35.7195 24.7347 38.7347 21.7195 38.7347 18Z" fill="#001A6E"/>
</svg>
