<svg width="32" height="32" viewBox="0 0 32 32" fill="none" xmlns="http://www.w3.org/2000/svg">
<g clip-path="url(#clip0_6_996)">
<path d="M14 0L16 0L18 0L16.6667 6H15.3333L14 0Z" fill="#001A6E"/>
<path d="M14 0L16 0L18 0L16.6667 6H15.3333L14 0Z" fill="#001A6E"/>
<path d="M18 32H14L15.3333 26H16.6667L18 32Z" fill="#001A6E"/>
<path d="M18 32H14L15.3333 26H16.6667L18 32Z" fill="#001A6E"/>
<path d="M32 14V18L26 16.6667V15.3333L32 14Z" fill="#001A6E"/>
<path d="M32 14V18L26 16.6667V15.3333L32 14Z" fill="#001A6E"/>
<path d="M0 18L0 14L6 15.3333L6 16.6667L0 18Z" fill="#001A6E"/>
<path d="M0 18L0 14L6 15.3333L6 16.6667L0 18Z" fill="#001A6E"/>
<path d="M27.9252 16C27.9252 9.47146 22.6221 4.11321 16 4.11321C9.37788 4.11322 4.07482 9.47147 4.07482 16C4.07482 22.5285 9.37788 27.8868 16 27.8868V30C8.26801 30 2 23.732 2 16C2 8.26802 8.26801 2.00002 16 2C23.732 2 30 8.26801 30 16C30 23.732 23.732 30 16 30V27.8868C22.6221 27.8868 27.9252 22.5285 27.9252 16Z" fill="#001A6E"/>
<path d="M17.557 10.1886V8H15.0506V10.1818H12V22.1935H15.0506V20.3871H17.557V22.1935C18.5191 22.1917 19.3292 22.047 19.9873 21.7595C20.6498 21.4702 21.1498 21.0772 21.4873 20.5806C21.8291 20.0802 22 19.5112 22 18.8739C22 18.2835 21.865 17.7752 21.5949 17.349C21.3249 16.9189 20.9726 16.5846 20.538 16.346C20.1076 16.1075 19.6456 15.9785 19.1519 15.9589V15.8416C19.6034 15.7478 20.0042 15.5894 20.3544 15.3666C20.7089 15.1398 20.9873 14.8504 21.1899 14.4985C21.3924 14.1427 21.4937 13.7302 21.4937 13.261C21.4937 12.6588 21.3333 12.1271 21.0127 11.6657C20.692 11.2004 20.2131 10.8368 19.5759 10.5748C19.0224 10.3472 18.3494 10.2184 17.557 10.1886ZM16.9747 20.1173H14.7405V16.9267H17.038C17.4768 16.9267 17.8544 16.999 18.1709 17.1437C18.4916 17.2884 18.7384 17.4878 18.9114 17.7419C19.0844 17.9961 19.1709 18.2893 19.1709 18.6217C19.1709 19.0753 18.9958 19.4389 18.6456 19.7126C18.2954 19.9824 17.7384 20.1173 16.9747 20.1173ZM16.7722 15.2082H14.7405V12.2346H16.8228C17.4304 12.2346 17.8987 12.3675 18.2278 12.6334C18.5612 12.8993 18.7278 13.2493 18.7278 13.6833C18.7278 14 18.6414 14.2717 18.4684 14.4985C18.2996 14.7253 18.0675 14.9013 17.7722 15.0264C17.481 15.1476 17.1477 15.2082 16.7722 15.2082Z" fill="#001A6E"/>
<path d="M15.0506 22.1935V20.3871H17.557V22.1935V24H15.0506V22.1935Z" fill="#001A6E"/>
</g>
<defs>
<clipPath id="clip0_6_996">
<rect width="32" height="32" fill="white"/>
</clipPath>
</defs>
</svg>
